<svg id="wave" style="transform:rotate(0deg); transition: 0.3s" viewBox="0 0 1440 220" version="1.1" xmlns="http://www.w3.org/2000/svg"><defs><linearGradient id="sw-gradient-0" x1="0" x2="0" y1="1" y2="0"><stop stop-color="#892cdc" offset="0%"></stop><stop stop-color="#892cdc" offset="100%"></stop></linearGradient></defs><path style="transform:translate(0, 0px); opacity:1" fill="url(#sw-gradient-0)" d="M0,66L40,55C80,44,160,22,240,18.3C320,15,400,29,480,55C560,81,640,117,720,135.7C800,154,880,154,960,139.3C1040,125,1120,95,1200,77C1280,59,1360,51,1440,58.7C1520,66,1600,88,1680,113.7C1760,139,1840,169,1920,150.3C2000,132,2080,66,2160,51.3C2240,37,2320,73,2400,95.3C2480,117,2560,125,2640,132C2720,139,2800,147,2880,150.3C2960,154,3040,154,3120,143C3200,132,3280,110,3360,99C3440,88,3520,88,3600,106.3C3680,125,3760,161,3840,161.3C3920,161,4000,125,4080,95.3C4160,66,4240,44,4320,44C4400,44,4480,66,4560,80.7C4640,95,4720,103,4800,121C4880,139,4960,169,5040,172.3C5120,176,5200,154,5280,124.7C5360,95,5440,59,5520,44C5600,29,5680,37,5720,40.3L5760,44L5760,220L5720,220C5680,220,5600,220,5520,220C5440,220,5360,220,5280,220C5200,220,5120,220,5040,220C4960,220,4880,220,4800,220C4720,220,4640,220,4560,220C4480,220,4400,220,4320,220C4240,220,4160,220,4080,220C4000,220,3920,220,3840,220C3760,220,3680,220,3600,220C3520,220,3440,220,3360,220C3280,220,3200,220,3120,220C3040,220,2960,220,2880,220C2800,220,2720,220,2640,220C2560,220,2480,220,2400,220C2320,220,2240,220,2160,220C2080,220,2000,220,1920,220C1840,220,1760,220,1680,220C1600,220,1520,220,1440,220C1360,220,1280,220,1200,220C1120,220,1040,220,960,220C880,220,800,220,720,220C640,220,560,220,480,220C400,220,320,220,240,220C160,220,80,220,40,220L0,220Z"></path></svg>